<svg width="34" height="36" viewBox="0 0 34 36" fill="none" xmlns="http://www.w3.org/2000/svg">
<g filter="url(#filter0_dd_1_338)">
<path d="M12 15L12 10C12 7.23858 14.2386 5 17 5V5C19.7614 5 22 7.23858 22 10L22 15" stroke="white" stroke-width="2" stroke-linecap="round"/>
<path d="M6.69435 14.9178C6.83942 13.1769 6.91196 12.3065 7.48605 11.7782C8.06013 11.25 8.9336 11.25 10.6805 11.25H23.3195C25.0664 11.25 25.9399 11.25 26.514 11.7782C27.088 12.3065 27.1606 13.1769 27.3057 14.9178L28.0695 24.0839C28.154 25.0974 28.1962 25.6042 27.8991 25.9271C27.602 26.25 27.0935 26.25 26.0764 26.25H7.9236C6.90655 26.25 6.39802 26.25 6.10092 25.9271C5.80382 25.6042 5.84605 25.0974 5.93051 24.0839L6.69435 14.9178Z" stroke="white" stroke-width="2"/>
</g>
<defs>
<filter id="filter0_dd_1_338" x="-2" y="0" width="38" height="38" filterUnits="userSpaceOnUse" color-interpolation-filters="sRGB">
<feFlood flood-opacity="0" result="BackgroundImageFix"/>
<feColorMatrix in="SourceAlpha" type="matrix" values="0 0 0 0 0 0 0 0 0 0 0 0 0 0 0 0 0 0 127 0" result="hardAlpha"/>
<feOffset dy="4"/>
<feGaussianBlur stdDeviation="2"/>
<feComposite in2="hardAlpha" operator="out"/>
<feColorMatrix type="matrix" values="0 0 0 0 0 0 0 0 0 0 0 0 0 0 0 0 0 0 0.25 0"/>
<feBlend mode="normal" in2="BackgroundImageFix" result="effect1_dropShadow_1_338"/>
<feColorMatrix in="SourceAlpha" type="matrix" values="0 0 0 0 0 0 0 0 0 0 0 0 0 0 0 0 0 0 127 0" result="hardAlpha"/>
<feOffset dy="4"/>
<feGaussianBlur stdDeviation="2"/>
<feComposite in2="hardAlpha" operator="out"/>
<feColorMatrix type="matrix" values="0 0 0 0 0 0 0 0 0 0 0 0 0 0 0 0 0 0 0.25 0"/>
<feBlend mode="normal" in2="effect1_dropShadow_1_338" result="effect2_dropShadow_1_338"/>
<feBlend mode="normal" in="SourceGraphic" in2="effect2_dropShadow_1_338" result="shape"/>
</filter>
</defs>
</svg>
